<svg xmlns="http://www.w3.org/2000/svg" viewBox="0 0 891.29 609.13"><defs><style>.cls-1{fill:#030403;}.cls-2{fill:#bb5952;}.cls-3{fill:#fdfdfd;}.cls-4{fill:#f1727d;}.cls-5{fill:#e89368;}</style></defs><g id="Layer_2" data-name="Layer 2"><g id="Layer_1-2" data-name="Layer 1"><path class="cls-1" d="M657.52,310c4.5,3.35,8.36,2.77,13,.64,19.06-8.68,40.13-1.75,51.74,12.26,5.42,6.54,7.4,14.3,6.6,22.73-.18,1.93-.62,3.52,2.39,3.49,17.62-.16,39.29,18.83,43.53,38,3.61,16.35,1.46,32.2-1.27,48.21-3.29,19.2-2.5,38.22,1.26,57.36,3.11,15.8,9.08,30.62,13.73,45.89,1.49,4.92,3.52,5.52,7.93,5.47,17.66-.22,35.34-.45,53,.19,12.42.46,24.92.67,37.25,2.76,2.08.35,4.56.75,4.59,2.91,0,2.6-2.7,2.89-4.84,3.2a309.61,309.61,0,0,1-44.27,2.84q-177.93.36-355.87,0c-10.62,0-21.61.27-31.74-2.3-6.34-1.61-9.25,1.43-13.54,3.4-11.39,5.24-22.5,11.09-35.15,13.19-5.3.88-10.12,3.66-15.76.86-7.73-3.83-14.74-8.35-19.42-15.8-.72-1.16-1-2.27-2.82-2.09-21.6,2.11-43.16.64-64.72-.86-1.81-.12-5.09-1.52-4.24,2.47,2.27,10.75-5.24,17-10.77,24.17-7.37,9.52-18.35,11.85-29.31,14-1.28.26-2.33.29-3.47,1.38-11.8,11.18-25.34,17-42,13.87-3.9-.73-7.88-.71-11.25-3.21a2.57,2.57,0,0,0-2.72-.23c-15.56,6-30.12,1.79-42.9-6.75-6-4-11.05-6.27-18.1-6.43a43.22,43.22,0,0,1-25-8.37c-4.06-3-6.85-6.47-7.45-11.2s-2.71-9.28-2.28-14.21c.13-1.57-.09-3-2.42-2.68C88.14,557,75,556.4,61.86,556.31c-18-.12-35.95.31-53.8-2.26-3.08-.45-8,.24-8.06-3.84-.07-4.62,5-3.72,8.18-4.12,27.87-3.51,55.86-1.75,83.81-2a2.78,2.78,0,0,0,.5,0c3.38-.41,7.55,2.85,9.81,0,1.74-2.18,1-6.37,1.27-9.68A42.14,42.14,0,0,1,107,520.5c5.56-12.3,11.66-24.34,20.15-35,6.19-7.77,14.87-11.87,23.83-14.62,15.19-4.66,30.7-8.21,46.91-7,3.1.23,7.14,3,9.22.1,1.5-2.14.31-6.12.48-9.27.61-10.78,4.53-20.58,9.14-30.15.85-1.75,1.88-3-1-4a203,203,0,0,1-39.62-19.09c-22.82-14.12-44.1-30.14-63-49.34a262.5,262.5,0,0,1-40-52.54c-8.49-14.62-16.55-29.38-20.76-45.87C49.12,241,46.15,228.27,46.63,215A48.84,48.84,0,0,1,50,199.05c1.69-4.38,6.53-5.44,10.53-6.8,16.65-5.65,33.67-4.18,50.78-2.64,27.13,2.43,52.79,10.82,78.14,19.72,28.34,9.95,56.23,21.3,81.87,37.36,1.39.86,2.31,1.89,4.18.21,13.48-12.08,30.05-17.63,47.22-21.73a77.72,77.72,0,0,1,14.2-2.29c6.67-.33,12-2.77,17.09-8.06,11.34-11.72,25.78-18,42.25-19.84,10.38-1.14,20.66-3.18,31.16-2.84,1.29,0,2-.22,2.34-1.76,6.23-28.06,21.14-52.58,31.94-78.78,7.81-18.95,17-37.23,26-55.6,6.2-12.68,12.52-25.55,21.62-36.63A54.4,54.4,0,0,1,539.42.4c8-1.87,14.12,3.16,20.38,7.36,13.36,9,21.18,22,27.88,36.07,5,10.58,9.83,21.25,14,32.22a64.1,64.1,0,0,1,3.1,9.89,76.91,76.91,0,0,0,6.79,20.67c4.12,7.91,4.56,16.64,5,25.17q2.93,62.39,2,124.85a167.27,167.27,0,0,1-1.82,19.3c-.37,2.88.43,3.64,3.23,3.81,14.35.89,27.73,4.58,38.87,14.27,2.5,2.18,5.08,4.27,7.42,6.6s1.94,4.35-1.15,5.76C662.61,307.51,659.66,307.69,657.52,310Zm-242.41,1.54c-.79-.43-1.58-.87-2.31.09l1.56.79c2,2.82,4.11,5.53,5.42,8.86,7.73,19.64-.34,49-15.64,65.29-1.69,1.8-2.81,3.1-.74,5.15s1.51,7,6.78,5.06c4.69-1.76,9.71-2.93,14.7-1.91a180.25,180.25,0,0,0,22.29,2.67c16.11,1.23,30.85-1.67,41.64-15.28,6.06-7.63,11.82-15.41,19.65-21.61,7.54-6,24.34-5.6,29.77,5.61,6.33,13.06,9.65,26.4,7.8,41-3,23.85-13.14,44.32-28.27,62.78-8.84,10.8-19.62,19.42-29.82,28.72-2.45,2.23-4.2,6.15-7.41,6.42-6,.49-6.5,5.19-8.5,8.87-1.18,2.19-2.16,4.49-3.16,6.77-3.5,8-8.15,15.35-13.2,23.59,49.82-3.57,98.71-1,147.4-1.43-2-18.1-8.78-34.71-11.51-52.36-2.33-15.11-10.06-28.77-16.3-42.69-7.47-16.66-12-33.76-10.81-52.17,1.32-19.68,14.28-35.34,33.37-40.23.38-.09.67-.48,1.08-.8a24.25,24.25,0,0,0-7.27-5.46C551.7,327.1,510.05,320.85,466.18,336a4.61,4.61,0,0,1-4.16-.26c-6.54-3.62-13.43-6.56-19.77-10.58A163.12,163.12,0,0,0,415.11,311.55Zm239.5-10.25c-12-9.6-25.76-13.9-40.7-14.31-6.93-.19-7.66-.31-6.41-7.28a181.42,181.42,0,0,0,3-33.74c-.28-28-2.07-55.91-3.18-83.87-.38-9.47-.71-19-2.38-28.35A282.8,282.8,0,0,0,584.5,66.64c-4.25-9.39-8.83-18.63-13.45-27.85-6.83-13.62-20.51-20-31.45-29.25-1.63-1.38-3.58-.32-5.17.55-9.2,5-17.4,11.16-22.75,20.4a618.11,618.11,0,0,0-32,63.76c-13.77,31.76-29,62.86-41.89,95-.48,1.21-1.31,2.25-1.13,3.74.85,6.86-.46,8.53-7.56,8.24A194.56,194.56,0,0,0,395.28,203,70,70,0,0,0,357,220.88c-1.67,1.49-2.25,2.82-1.27,5.13,3.77,8.89,6.93,18,11,26.79C372.62,265.48,378.9,278,387,289.47c2.81,4,5.88,6.64,11.45,6.24,5.94-.43,11.88.88,17.67,2.71a50.6,50.6,0,0,1,18.57,10.21c-4.53-19.86,1.61-33.19,15.56-35.45a22.28,22.28,0,0,1,25.38,19.18c1,8.29-1.2,15.56-7.4,21.3s-13.92,6.53-23.3,4c6.35,6.15,12.38,10,18.15,14.14a2.67,2.67,0,0,0,3.19.08c10.73-5.58,22.37-7.36,34.23-8.21,35.15-2.52,67.88,4.55,97.3,24.64,2.41,1.65,4.84,3.25,7.64,5.12.84-7.7,1.77-14.74,4.84-21.06,5.91-12.2,12.74-24,28.31-24.95C644.75,307.1,649.6,304.85,654.61,301.3ZM782.09,543.06c-3.35-6.52-4-13.54-6.68-20-6.64-16-11.66-32.57-13.9-49.75-2.76-21.23.46-42.45,1.87-63.59,1.32-19.88-2.85-36.37-21.13-46.84-5.43-3.11-10.92-6.62-18-3.67-2.9,1.22-5.08-1.11-5.62-4.11a40.87,40.87,0,0,1-.42-7.44c.06-7.29-1.27-14.44-6.58-19.81-7.88-8-17.43-13.1-28.91-12.36-6,.38-12.57.72-15.85,7.7-1.42,3-4.35,3.45-7.25,1.67-4-2.49-8.63-3.58-13.14-4.58-6.21-1.38-11.92-.81-16.93,4.33-8.65,8.85-11,19.91-12.06,31.45-.9,9.84-.63,9.86-10.08,9.72-.5,0-1,.13-1.49.15-16.23.54-26.18,13.81-28.37,25.73-3.11,16.94-.74,33.48,7.62,48.36,17.11,30.42,22.2,63.76,25.25,97.66.41,4.5,1.41,5.38,5.64,5.37q75.46-.16,150.93,0ZM322.37,339.46c.44-3.6,2.06-6.62,3.45-9.76,5.11-11.62,15.13-17.8,25.66-23.35,2.58-1.36,3.53-2.79,3.5-5.71a142.81,142.81,0,0,0-1.39-17.91c-2.32-16.82-7-32.78-16.5-47.14-2.31-3.5-4.88-4.24-8.73-3.23-14.58,3.81-29.22,8.41-41.3,17.09-10.12,7.26-18.28,6.38-27.72.92-1.15-.67-2.42-1.12-3.59-1.74a515.7,515.7,0,0,0-68.47-30.21c-25.08-9-50.9-15.73-77.55-18.42-14.92-1.51-30-2.8-44.57,1.93-10.35,3.37-8.89,2.11-8.3,12.43.17,2.82.43,5.64.82,8.44,2.94,21.42,8.11,42.18,19,61.11a347.63,347.63,0,0,0,32.23,47.43c11.55,14.13,24,27.22,38.52,38.26,22.64,17.21,46.81,31.72,73.49,41.92,8.5,3.25,9.86,6.2,6.72,14.65a325.67,325.67,0,0,0-11.1,37.29c-.55,2.3-.39,2.77,1.93,3.68,15.61,6.18,31.3,12.3,44.08,23.77,2.43,2.18,5,4.23,8.52,7.24-2.53-13-1.49-24.58,1.16-35.92,7.17-30.71,22.07-56.9,46.3-77.48,1.52-1.29,3.9-2.06,3-5.07-1.05-3.53-1.66-7.19-2.48-10.84-13.13,8.94-24.77,8.41-32.49-1.39-7-8.86-5.64-22.53,3-30.36C299.45,328.06,311.11,328.84,322.37,339.46ZM115.81,550.21c.35,4.53.43,9.55,1.22,14.46.51,3.13.52,6.37,2.93,9.26,6.3,7.59,14.78,9.73,23.88,10.81,1.35.16,2-.47,2.79-1.5,3.06-3.91,5.92-3.84,8.66,0,9,12.61,22,15.95,36.58,15.88,2,0,1.74-1.12,2.06-2.47,1.16-5,5.56-6.36,9.37-2.82,2,1.84,4,3.6,6.58,4.3,12.51,3.38,24.38,1.86,35.49-4.94,1.83-1.12,3.94-2.12,4.1-4.62.28-4.18,2.61-4.91,6.4-4.92,13.29,0,24.26-4.92,31.81-16.31a8.46,8.46,0,0,0,1.7-6c-1.76-14-5.41-27.27-13-39.45-6.69-10.74-16-18.91-25.89-26-11.18-8-23.62-14.45-37.13-17.71-20.11-4.85-40.06-2.19-59.65,3.45a31.26,31.26,0,0,0-17.3,12c-4.37,6.13-7.23,13.09-11.17,19.43C118.22,524.26,116.59,536.88,115.81,550.21Zm254.75-40.63c-2.65-2.3-6.08-1.16-9-2.33a115.07,115.07,0,0,1-33.74-20.87c-8.15-7.16-15.83-14.84-19.52-25.42-4.4-12.59,1-23.72,12.5-26.33,5-1.13,9.48.57,13.88,2.74,14.95,7.38,22.14,7.19,34.87-3.9,6.91-6,12.1-13.87,18.59-20,7.1-6.72,6.27-11.91,2.25-18.71a1.43,1.43,0,0,1-.2-.46c-.37-2-1.27-2.61-3.45-2.22-14.33,2.55-27.42-1.69-39.69-8.42-8.26-4.53-15.22-10.78-18.14-20.36-.25-.82-.1-2.14-1.86-2.16a78.1,78.1,0,0,0-2.57,20.47,4.29,4.29,0,0,1-1.89,4.09c-15.36,11.57-26.37,26.7-34.73,43.76-10.28,21-15.93,42.87-13.26,66.56a17.53,17.53,0,0,0,4.73,10.68c8.84,9.77,15.37,20.9,18.14,33.9.63,3,1.73,3.54,4.57,3.52,14.16-.12,28.32-.05,42.48.12,6.78.09,13.55.56,20.77.88C361.42,532.17,365.45,520.78,370.56,509.58Zm54-60.35a19.55,19.55,0,0,0-8.14,2.87,47.52,47.52,0,0,0-20.65,25.4c-2.22,6.26-4.87,12.34-7.6,18.42-4,9-9.83,17.13-11.49,27.34-2.23,13.82,2.16,27,13.31,34.72,2.1,1.46,4.25,3.46,7.24,2.4,8.61-3,17.8-3.81,26.36-7.32,10.32-4.23,20.17-8.62,26.05-18.92,4.22-7.38,7.57-15.18,11.55-22.65a31.85,31.85,0,0,0,3.46-21.58,41.38,41.38,0,0,1-.26-9c.54-13.17-1.54-26.64,5.74-39,3.56-6,.72-10.26-6.38-9.33-16.44,2.15-26.73,10-29.94,27.77-2.59,14.37-5.77,28.7-7.25,43.26a51.64,51.64,0,0,1-12.69,29.74c-2.26,2.56-5.4,4.66-8.69,1.71s-2.37-6.23.49-9.12a20.82,20.82,0,0,0,4.93-8,205.77,205.77,0,0,0,6.11-20.55c2.37-10.76,2.29-21.84,4.78-32.58C422.64,459.75,424.87,454.79,424.53,449.23Zm-85.19-219C356,251,360,275.74,360.88,301.9c8.16-4,16.45-5.11,25.1-6-3.29-4.66-6.41-8.72-9.16-13-10.52-16.45-17.54-34.51-24.17-52.75-.43-1.16.32-3.66-2.64-2.76C346.38,228.47,342.67,229.32,339.34,230.2Zm-31,119.38c4,.12,7.08-2.4,7.18-5.42.12-3.21-3-6.14-6.56-6s-6.17,2-6.19,5.69S305.41,349.21,308.3,349.58Zm155.89-62.3c-.07-3.69-2.61-6.2-5.74-6.14-3.34.05-6.52,3.28-6.13,6.53.42,3.41,2.55,5.59,6,5.34S464,290.52,464.19,287.28Z"/><path class="cls-2" d="M654.61,301.3c-5,3.55-9.86,5.8-16,6.17-15.57.94-22.4,12.75-28.31,24.95-3.07,6.32-4,13.36-4.84,21.06-2.8-1.87-5.23-3.47-7.64-5.12-29.42-20.09-62.15-27.16-97.3-24.64-11.86.85-23.5,2.63-34.23,8.21a2.67,2.67,0,0,1-3.19-.08c-5.77-4.17-11.8-8-18.15-14.14,9.38,2.48,17,1.79,23.3-4s8.36-13,7.4-21.3a22.28,22.28,0,0,0-25.38-19.18c-13.95,2.26-20.09,15.59-15.56,35.45a50.6,50.6,0,0,0-18.57-10.21c-5.79-1.83-11.73-3.14-17.67-2.71-5.57.4-8.64-2.24-11.45-6.24-8.09-11.49-14.37-24-20.24-36.67-4.06-8.75-7.22-17.9-11-26.79-1-2.31-.4-3.64,1.27-5.13A70,70,0,0,1,395.28,203a194.56,194.56,0,0,1,33.85-1.74c7.1.29,8.41-1.38,7.56-8.24-.18-1.49.65-2.53,1.13-3.74,12.85-32.15,28.12-63.25,41.89-95a618.11,618.11,0,0,1,32-63.76c5.35-9.24,13.55-15.42,22.75-20.4,1.59-.87,3.54-1.93,5.17-.55,10.94,9.27,24.62,15.63,31.45,29.25,4.62,9.22,9.2,18.46,13.45,27.85A282.8,282.8,0,0,1,605,133.75c1.67,9.3,2,18.88,2.38,28.35,1.11,28,2.9,55.88,3.18,83.87a181.42,181.42,0,0,1-3,33.74c-1.25,7-.52,7.09,6.41,7.28C628.85,287.4,642.64,291.7,654.61,301.3ZM527.83,223.63a22.24,22.24,0,0,0-11.71,6.63c-4.91,5.08-4.76,7.94.53,12.39.76.64,1.35,1.48,2.08,2.16,10.59,9.7,21.83,18.49,34.91,24.67,8,3.77,16.78,3.73,25.23,5.33,4.34.82,6.78-.62,8.24-4.35a61.59,61.59,0,0,0,3.25-14.07c2.37-16.84,3.19-33.82,3.76-50.76.51-15,2.54-30.1,0-45.26a729,729,0,0,0-16.35-72.5c-3.95-14.49-11.55-27.27-20.06-39.43-9.64-13.78-22.08-13.5-29.89.52-12.61,22.63-22.16,46.39-27.59,71.91-3.73,17.58-6.05,35.45-10.66,52.8-3,11.28-4.46,22.85-7.58,34.08-.72,2.59-1.19,5.4,1.87,7,2.81,1.5,4.07-1,5.89-2.34,7.21-5.44,14.85-9.83,25.28-9-3.63,4-6,7.91-6.89,12.54-.81,4.2,1.68,7.28,5.28,6C518.67,220.08,523.18,222,527.83,223.63Z"/><path class="cls-3" d="M782.09,543.06H767q-75.46-.06-150.93,0c-4.23,0-5.23-.87-5.64-5.37-3.05-33.9-8.14-67.24-25.25-97.66-8.36-14.88-10.73-31.42-7.62-48.36,2.19-11.92,12.14-25.19,28.37-25.73.5,0,1-.16,1.49-.15,9.45.14,9.18.12,10.08-9.72,1.05-11.54,3.41-22.6,12.06-31.45,5-5.14,10.72-5.71,16.93-4.33,4.51,1,9.09,2.09,13.14,4.58,2.9,1.78,5.83,1.36,7.25-1.67,3.28-7,9.88-7.32,15.85-7.7,11.48-.74,21,4.4,28.91,12.36,5.31,5.37,6.64,12.52,6.58,19.81a40.87,40.87,0,0,0,.42,7.44c.54,3,2.72,5.33,5.62,4.11,7-2.95,12.53.56,18,3.67,18.28,10.47,22.45,27,21.13,46.84-1.41,21.14-4.63,42.36-1.87,63.59,2.24,17.18,7.26,33.74,13.9,49.75C778.08,529.52,778.74,536.54,782.09,543.06ZM713.73,442.15l-.1.1c1.12.38,1.49,0,1.1-1.1l-.1.1c1.13.4,1.45,0,1.1-1.1l-.1.1c6.6-5.1,3.88-20.38-4-26.32l.12.13c-1.13-4.26-4.74-6-8.09-8.05h0a5.9,5.9,0,0,0-5-3.08l.13.13c-1-2.94-3.76-3.72-6.08-5v0c0-.65-.36-1-1-1.05h0c-1.13-1.31-1.81-3.22-4-3.08l.15.14c-.43-3.09-3.28-4.13-5.11-6l0,0c-.09-.6-.31-1.08-1-1.07h0c-.74-1.3-.92-3.15-3-3.08l.13.14c.28-1.69-.39-2.44-2.13-2.13l.13.12c.81-1.07-.32-1.45-.8-1.84-10.72-8.72-21.78-3.74-28.28,6.79-3.35,5.44-4.88,12-7.24,18l.1-.11c-1.51-.11-2.19.6-2.1,2.09l.11-.1a4,4,0,0,0-4.1,3.1l.1-.1c-4.1,1.05-5.92,4-6.72,7.9a41.71,41.71,0,0,0-.32,11.76c.86,10.68,7.4,17.5,18.13,18.35l1.83.22c.26.74.84.88,1.54.92,13,.73,26,1.54,39.11.91,3-.38,6.55,1.7,8.86-1.91l3.7-.13c4.81.37,9.14-.45,12.07-4.81l-.1.11C713.74,443.61,714.13,443.27,713.73,442.15ZM591.49,385.91a14.5,14.5,0,0,0-1.58,17.61c3.35,5.35,10,7.8,16.57,6a18.54,18.54,0,0,0,12.6-11.06c3.45-8,.47-16.33-7-19.74s-16.8-.06-20.66,7.24Zm88-51-1,1c-6.67,7.65-6.26,17.39,1,22.58,5,3.58,13,3.39,18.77-.46,6.12-4.1,9.49-11.38,8.07-17.46C703.48,328.74,689.33,325.74,679.44,335Zm68.26,46,.06.05c-.16-.41-.19-1-.48-1.2a15.5,15.5,0,0,0-19.31,1,14.93,14.93,0,0,0-3.49,18.54,15.68,15.68,0,0,0,18.17,7.87c6.68-1.82,12-8.56,11.41-15.17C753.64,387.54,752.87,382.86,747.7,380.93ZM644.51,335.26l-2.41,1.05c-1.79-1.25-3.45-.95-5.31.08a18.07,18.07,0,0,0-8.56,9.34c-2.39,6.09-1,12.85,3.62,16.87a14.92,14.92,0,0,0,17.24,1.29c6-3.52,9.59-11.13,8.18-17.4C655.76,339.83,651.46,336,644.51,335.26Z"/><path class="cls-2" d="M322.37,339.46c-11.26-10.62-22.92-11.4-32.86-2.37-8.61,7.83-9.95,21.5-3,30.36,7.72,9.8,19.36,10.33,32.49,1.39.82,3.65,1.43,7.31,2.48,10.84.9,3-1.48,3.78-3,5.07-24.23,20.58-39.13,46.77-46.3,77.48-2.65,11.34-3.69,22.9-1.16,35.92-3.55-3-6.09-5.06-8.52-7.24-12.78-11.47-28.47-17.59-44.08-23.77-2.32-.91-2.48-1.38-1.93-3.68a325.67,325.67,0,0,1,11.1-37.29c3.14-8.45,1.78-11.4-6.72-14.65-26.68-10.2-50.85-24.71-73.49-41.92-14.52-11-27-24.13-38.52-38.26a347.63,347.63,0,0,1-32.23-47.43c-10.87-18.93-16-39.69-19-61.11-.39-2.8-.65-5.62-.82-8.44-.59-10.32-2-9.06,8.3-12.43,14.58-4.73,29.65-3.44,44.57-1.93,26.65,2.69,52.47,9.4,77.55,18.42a515.7,515.7,0,0,1,68.47,30.21c1.17.62,2.44,1.07,3.59,1.74,9.44,5.46,17.6,6.34,27.72-.92,12.08-8.68,26.72-13.28,41.3-17.09,3.85-1,6.42-.27,8.73,3.23,9.46,14.36,14.18,30.32,16.5,47.14A142.81,142.81,0,0,1,355,300.64c0,2.92-.92,4.35-3.5,5.71-10.53,5.55-20.55,11.73-25.66,23.35C324.43,332.84,322.81,335.86,322.37,339.46Zm-94.38-33c.83-.45,1.43-.73,2-1.09,6.49-4.21,13.29-7.44,21.31-7.31,4.12.06,7.61-1.26,8.8-5.79,1.1-4.18-1.91-6-4.71-7.86-7.94-5.17-15.79-10.44-24.43-14.51-14.61-6.86-28.92-14.36-43.52-21.24-20.77-9.77-41.31-20.09-63.33-26.92-8.57-2.66-17-5.77-25.93-7.24-8-1.3-13.73,1.85-15.09,8.64a53.3,53.3,0,0,0-.87,17.38c2.12,16.53,9.2,31,17.4,45.31,16.27,28.27,37.16,52.83,60.69,75,20.51,19.33,46.49,30,71.86,41.39a4.49,4.49,0,0,0,3.84.1c6.42-2.77,11.42-6.7,15-13.12,9.21-16.37,6.85-33.82,6-51.21-.18-3.81-2.44-7.28-.49-11.51,1.23-2.66-1.16-5-4.25-5.51a10.93,10.93,0,0,0-7.68,1.49c-4.17,2.52-8.94,4-12.48,7.69.89-5.86,4-10.3,7.27-14.71,1.47-2,2.17-4.22.69-6.49-1.38-2.11-3.49-2.51-5.72-1.58C232.36,308.27,230.55,308,228,306.49Z"/><path class="cls-3" d="M415.11,311.55a163.12,163.12,0,0,1,27.14,13.6c6.34,4,13.23,7,19.77,10.58a4.61,4.61,0,0,0,4.16.26c43.87-15.14,85.52-8.89,125.45,13.26a24.25,24.25,0,0,1,7.27,5.46c-.41.32-.7.71-1.08.8-19.09,4.89-32.05,20.55-33.37,40.23-1.23,18.41,3.34,35.51,10.81,52.17,6.24,13.92,14,27.58,16.3,42.69,2.73,17.65,9.47,34.26,11.51,52.36-48.69.45-97.58-2.14-147.4,1.43,5.05-8.24,9.7-15.61,13.2-23.59,1-2.28,2-4.58,3.16-6.77,2-3.68,2.53-8.38,8.5-8.87,3.21-.27,5-4.19,7.41-6.42,10.2-9.3,21-17.92,29.82-28.72C532.89,451.56,543,431.09,546,407.24c1.85-14.57-1.47-27.91-7.8-41-5.43-11.21-22.23-11.58-29.77-5.61-7.83,6.2-13.59,14-19.65,21.61-10.79,13.61-25.53,16.51-41.64,15.28a180.25,180.25,0,0,1-22.29-2.67c-5-1-10,.15-14.7,1.91-5.27,2-4.77-3.07-6.78-5.06s-.95-3.35.74-5.15c15.3-16.3,23.37-45.65,15.64-65.29-1.31-3.33-3.41-6-5.42-8.86Z"/><path class="cls-3" d="M115.81,550.21c.78-13.33,2.41-26,9.44-37.25,3.94-6.34,6.8-13.3,11.17-19.43a31.26,31.26,0,0,1,17.3-12c19.59-5.64,39.54-8.3,59.65-3.45,13.51,3.26,25.95,9.67,37.13,17.71,9.93,7.14,19.2,15.31,25.89,26,7.58,12.18,11.23,25.45,13,39.45a8.46,8.46,0,0,1-1.7,6c-7.55,11.39-18.52,16.3-31.81,16.31-3.79,0-6.12.74-6.4,4.92-.16,2.5-2.27,3.5-4.1,4.62-11.11,6.8-23,8.32-35.49,4.94-2.58-.7-4.59-2.46-6.58-4.3-3.81-3.54-8.21-2.17-9.37,2.82-.32,1.35,0,2.46-2.06,2.47-14.54.07-27.56-3.27-36.58-15.88-2.74-3.81-5.6-3.88-8.66,0-.81,1-1.44,1.66-2.79,1.5-9.1-1.08-17.58-3.22-23.88-10.81-2.41-2.89-2.42-6.13-2.93-9.26C116.24,559.76,116.16,554.74,115.81,550.21Z"/><path class="cls-3" d="M370.56,509.58c-5.11,11.2-9.14,22.59-5.29,35.53-7.22-.32-14-.79-20.77-.88-14.16-.17-28.32-.24-42.48-.12-2.84,0-3.94-.53-4.57-3.52-2.77-13-9.3-24.13-18.14-33.9A17.53,17.53,0,0,1,274.58,496c-2.67-23.69,3-45.6,13.26-66.56,8.36-17.06,19.37-32.19,34.73-43.76a4.29,4.29,0,0,0,1.89-4.09A78.1,78.1,0,0,1,327,361.13c1.76,0,1.61,1.34,1.86,2.16,2.92,9.58,9.88,15.83,18.14,20.36,12.27,6.73,25.36,11,39.69,8.42,2.18-.39,3.08.26,3.45,2.22a1.43,1.43,0,0,0,.2.46c4,6.8,4.85,12-2.25,18.71-6.49,6.14-11.68,14-18.59,20-12.73,11.09-19.92,11.28-34.87,3.9-4.4-2.17-8.85-3.87-13.88-2.74-11.53,2.61-16.9,13.74-12.5,26.33,3.69,10.58,11.37,18.26,19.52,25.42a115.07,115.07,0,0,0,33.74,20.87C364.48,508.42,367.91,507.28,370.56,509.58Z"/><path class="cls-4" d="M424.53,449.23c.34,5.56-1.89,10.52-3.07,15.61-2.49,10.74-2.41,21.82-4.78,32.58A205.77,205.77,0,0,1,410.57,518a20.82,20.82,0,0,1-4.93,8c-2.86,2.89-3.78,6.17-.49,9.12s6.43.85,8.69-1.71a51.64,51.64,0,0,0,12.69-29.74c1.48-14.56,4.66-28.89,7.25-43.26,3.21-17.8,13.5-25.62,29.94-27.77,7.1-.93,9.94,3.29,6.38,9.33-7.28,12.32-5.2,25.79-5.74,39a41.38,41.38,0,0,0,.26,9,31.85,31.85,0,0,1-3.46,21.58c-4,7.47-7.33,15.27-11.55,22.65-5.88,10.3-15.73,14.69-26.05,18.92-8.56,3.51-17.75,4.28-26.36,7.32-3,1.06-5.14-.94-7.24-2.4-11.15-7.73-15.54-20.9-13.31-34.72,1.66-10.21,7.46-18.35,11.49-27.34,2.73-6.08,5.38-12.16,7.6-18.42a47.52,47.52,0,0,1,20.65-25.4A19.55,19.55,0,0,1,424.53,449.23Z"/><path class="cls-3" d="M339.34,230.2c3.33-.88,7-1.73,10.67-2.85,3-.9,2.21,1.6,2.64,2.76,6.63,18.24,13.65,36.3,24.17,52.75,2.75,4.29,5.87,8.35,9.16,13-8.65.92-16.94,2.06-25.1,6C360,275.74,356,251,339.34,230.2Z"/><path class="cls-3" d="M308.3,349.58c-2.89-.37-5.58-2-5.57-5.76s2.55-5.58,6.19-5.69,6.68,2.82,6.56,6C315.38,347.18,312.33,349.7,308.3,349.58Z"/><path class="cls-3" d="M464.19,287.28c-.19,3.24-2.31,5.48-5.85,5.73s-5.6-1.93-6-5.34c-.39-3.25,2.79-6.48,6.13-6.53C461.58,281.08,464.12,283.59,464.19,287.28Z"/><path class="cls-3" d="M414.36,312.43l-1.56-.79c.73-1,1.52-.52,2.31-.09Z"/><path class="cls-1" d="M527.83,223.63c-4.65-1.67-9.16-3.55-14.38-1.65-3.6,1.32-6.09-1.76-5.28-6,.89-4.63,3.26-8.54,6.89-12.54-10.43-.87-18.07,3.52-25.28,9-1.82,1.37-3.08,3.84-5.89,2.34-3.06-1.63-2.59-4.44-1.87-7,3.12-11.23,4.58-22.8,7.58-34.08,4.61-17.35,6.93-35.22,10.66-52.8,5.43-25.52,15-49.28,27.59-71.91,7.81-14,20.25-14.3,29.89-.52,8.51,12.16,16.11,24.94,20.06,39.43a729,729,0,0,1,16.35,72.5c2.51,15.16.48,30.21,0,45.26-.57,16.94-1.39,33.92-3.76,50.76a61.59,61.59,0,0,1-3.25,14.07c-1.46,3.73-3.9,5.17-8.24,4.35-8.45-1.6-17.23-1.56-25.23-5.33-13.08-6.18-24.32-15-34.91-24.67-.73-.68-1.32-1.52-2.08-2.16-5.29-4.45-5.44-7.31-.53-12.39A22.24,22.24,0,0,1,527.83,223.63Zm-9.54-10.41c9.6-.42,16.57,3.71,23.84,6.84A13.09,13.09,0,0,1,549.3,228a4.69,4.69,0,0,1-1.37,5.46,4.19,4.19,0,0,1-5.52.35c-4.7-3.44-9.92-1.56-14.89-1.45a5.25,5.25,0,0,0-4.69,3.95c-.34,1.64,2,2.35,3.34,3.24,9,6.06,17.82,12.3,27,17.93,5.49,3.35,10.89,7,17.28,8.82,4.17,1.17,6.23.72,7.15-4.15,2.91-15.45,3.72-31,4.33-46.68.42-10.81-1.23-21.67.62-32.41a105.14,105.14,0,0,0,1-21.41c-.46-13.43-4.77-26.16-7.12-39.25-4.83-26.92-14-51.93-31.67-73.36-2.71-3.28-4.11-2.84-6.29-.18a38.87,38.87,0,0,0-2.85,3.47,200.49,200.49,0,0,0-21.92,48.46c-6.23,20-9.74,40.76-13.06,61.47-2,12.62-5.07,25-8.51,38.81,7.77-6.78,16.17-8.13,24.84-8.74,5.6-.4,11-.07,15.78,3.31,2,1.43,3.23,3.44,2.41,6-.66,2.07-2.24,4-4.32,3.47C524.39,203.58,522.38,208.57,518.29,213.22Z"/><path class="cls-4" d="M700.67,448l-3.7.13a11.93,11.93,0,0,1-6.72.4c-4.83-.83-9.83-1.28-14.68.38-9.39.72-18.7-1.79-28.11-.7l-1.83-.22c-1.28-2.71-4.23-2.31-6.39-3.18-5.39-2.19-8.8-5.78-9.83-11.51-1.52-8.47-2-16.74,5.13-23.32l-.1.1c1.87-.36,3.42-1.16,4.1-3.1l-.11.1a1.85,1.85,0,0,0,2.1-2.09l-.1.11c4.78-3.53,4.91-9.38,6.84-14.25,2.66-6.73,8.53-9.81,14.1-12.8,5.76-3.09,10.56,1.44,15.38,4.06l-.13-.12a2.4,2.4,0,0,0,2.13,2.13l-.13-.14c.49,1.55.73,3.34,3,3.08h0c0,.38-.18.82,0,1.12.32.69.71,0,1.07-.05l0,0c.3,3.2,2.89,4.46,5.11,6l-.15-.14c.92,1.59,1.58,3.51,4,3.08h0c0,.37-.75.76-.07,1.1.29.14.74,0,1.11-.05l0,0c.67,3.33,3.72,3.77,6.09,5l-.13-.13c.91,2.28,2.4,3.61,5,3.08h0c1.82,3.57,5.24,5.52,8.09,8.05l-.12-.13c5.09,8.2,8.51,16.66,4,26.32l.1-.1c-.84-.11-1.16.3-1.1,1.1l.1-.1c-.8-.08-1.17.29-1.1,1.1l.1-.1c-.8-.07-1.2.26-1.09,1.1l.1-.11Z"/><path class="cls-4" d="M642.1,336.31l2.41-1.05c.21,1.22,1.23,1.37,2.17,1.71,7.2,2.65,10.4,8.27,8.91,15.58A14.86,14.86,0,0,1,639,364.31c-6.67-1-10.93-6.75-10.41-14.09C629.11,343.41,633.81,338.55,642.1,336.31Z"/><path class="cls-1" d="M747.7,380.93c5.17,1.93,5.94,6.61,6.36,11.06.62,6.61-4.73,13.35-11.41,15.17a15.68,15.68,0,0,1-18.17-7.87A14.93,14.93,0,0,1,728,380.75a15.5,15.5,0,0,1,19.31-1c.29.22.32.79.48,1.2-1.67-.64-3.31-1.37-5-1.91a13.93,13.93,0,1,0-8,26.65c7.67,2.08,15.06-2.45,17.32-10.25C753.76,389.55,750.27,385.43,747.7,380.93Z"/><path class="cls-1" d="M679.44,335c9.89-9.22,24-6.22,26.81,5.69,1.42,6.08-2,13.36-8.07,17.46-5.74,3.85-13.79,4-18.77.46-7.22-5.19-7.63-14.93-1-22.58l.82.67a40.88,40.88,0,0,0-3.16,5.6c-2.65,7,.75,14.59,7.32,16.7,9.12,3,19.56-3.37,21.2-12.84,1.48-8.54-4.1-15.06-12.76-15.06-4.59,0-8.34,1.85-11.73,4.72Z"/><path class="cls-1" d="M591.44,386c3.86-7.3,13.29-10.6,20.66-7.24s10.43,11.71,7,19.74a18.54,18.54,0,0,1-12.6,11.06c-6.61,1.8-13.22-.65-16.57-6a14.49,14.49,0,0,1,1.59-17.61c.39,1.82-1,3-1.54,4.58-2.56,7.81,1.26,15.82,8.47,17.6A16.85,16.85,0,0,0,618.6,394.9c1.92-11-7.28-18.66-17.93-15.13C596.89,381,594.7,384.2,591.44,386Z"/><path class="cls-1" d="M642.1,336.31c-8.29,2.24-13,7.1-13.48,13.91-.52,7.34,3.74,13.11,10.41,14.09a14.86,14.86,0,0,0,16.56-11.76c1.49-7.31-1.71-12.93-8.91-15.58-.94-.34-2-.49-2.17-1.71,7,.77,11.25,4.57,12.76,11.23,1.41,6.27-2.17,13.88-8.18,17.4a14.92,14.92,0,0,1-17.24-1.29c-4.58-4-6-10.78-3.62-16.87a18.07,18.07,0,0,1,8.56-9.34C638.65,335.36,640.31,335.06,642.1,336.31Z"/><path class="cls-1" d="M676.75,382.06c-4.82-2.62-9.62-7.15-15.38-4.06-5.57,3-11.44,6.07-14.1,12.8-1.93,4.87-2.06,10.72-6.84,14.25,2.36-6.05,3.89-12.6,7.24-18,6.5-10.53,17.56-15.51,28.28-6.79C676.43,380.61,677.56,381,676.75,382.06Z"/><path class="cls-1" d="M634.54,409.93c-7.12,6.58-6.65,14.85-5.13,23.32,1,5.73,4.44,9.32,9.83,11.51,2.16.87,5.11.47,6.39,3.18-10.73-.85-17.27-7.67-18.13-18.35a41.71,41.71,0,0,1,.32-11.76C628.62,414,630.44,411,634.54,409.93Z"/><path class="cls-1" d="M715.63,440.25c4.51-9.66,1.09-18.12-4-26.32C719.51,419.87,722.23,435.15,715.63,440.25Z"/><path class="cls-1" d="M647.46,448.16c9.41-1.09,18.72,1.42,28.11.7,4.15.71,8.58-1.65,12.54,1.13-13.06.63-26.08-.18-39.11-.91C648.3,449,647.72,448.9,647.46,448.16Z"/><path class="cls-2" d="M688.11,450c-4-2.78-8.39-.42-12.54-1.13,4.85-1.66,9.85-1.21,14.68-.38a11.93,11.93,0,0,0,6.72-.4C694.66,451.69,691.12,449.61,688.11,450Z"/><path class="cls-1" d="M700.67,448l12.07-4.81C709.81,447.5,705.48,448.32,700.67,448Z"/><path class="cls-1" d="M711.75,414.06c-2.85-2.53-6.27-4.48-8.09-8.05C707,408,710.62,409.8,711.75,414.06Z"/><path class="cls-1" d="M698.75,403.05c-2.37-1.26-5.42-1.7-6.09-5C695,399.33,697.76,400.11,698.75,403.05Z"/><path class="cls-1" d="M687.76,394.07c-2.22-1.58-4.81-2.84-5.11-6C684.48,389.94,687.33,391,687.76,394.07Z"/><path class="cls-1" d="M703.65,406c-2.63.53-4.12-.8-5-3.08A5.9,5.9,0,0,1,703.65,406Z"/><path class="cls-1" d="M638.54,406.93c-.68,1.94-2.23,2.74-4.1,3.1A4,4,0,0,1,638.54,406.93Z"/><path class="cls-1" d="M681.67,387c-2.32.26-2.56-1.53-3-3.08C680.75,383.86,680.93,385.71,681.67,387Z"/><path class="cls-1" d="M691.65,397c-2.46.43-3.12-1.49-4-3.08C689.84,393.79,690.52,395.7,691.65,397Z"/><path class="cls-1" d="M640.53,404.94a1.85,1.85,0,0,1-2.1,2.09C638.34,405.54,639,404.83,640.53,404.94Z"/><path class="cls-1" d="M678.75,384.07a2.4,2.4,0,0,1-2.13-2.13C678.36,381.63,679,382.38,678.75,384.07Z"/><path class="cls-1" d="M692.68,398.05c-.37,0-.82.19-1.11.05-.68-.34,0-.73.07-1.1C692.32,397,692.63,397.4,692.68,398.05Z"/><path class="cls-1" d="M714.63,441.25c-.06-.8.26-1.21,1.1-1.1C716.08,441.23,715.76,441.65,714.63,441.25Z"/><path class="cls-1" d="M713.63,442.25c-.07-.81.3-1.18,1.1-1.1C715.12,442.26,714.75,442.63,713.63,442.25Z"/><path class="cls-1" d="M712.64,443.25c-.11-.84.29-1.17,1.09-1.1C714.13,443.27,713.74,443.61,712.64,443.25Z"/><path class="cls-1" d="M682.67,388.07c-.36,0-.75.74-1.07.05-.14-.3,0-.74,0-1.12C682.36,387,682.58,387.47,682.67,388.07Z"/><path class="cls-1" d="M678.45,336l1-1,.7.82-.87.88Z"/><path class="cls-1" d="M228,306.49c2.56,1.5,4.37,1.78,6.42.93,2.23-.93,4.34-.53,5.72,1.58,1.48,2.27.78,4.49-.69,6.49-3.23,4.41-6.38,8.85-7.27,14.71,3.54-3.7,8.31-5.17,12.48-7.69a10.93,10.93,0,0,1,7.68-1.49c3.09.54,5.48,2.85,4.25,5.51-1.95,4.23.31,7.7.49,11.51.8,17.39,3.16,34.84-6,51.21-3.61,6.42-8.61,10.35-15,13.12a4.49,4.49,0,0,1-3.84-.1c-25.37-11.36-51.35-22.06-71.86-41.39-23.53-22.19-44.42-46.75-60.69-75-8.2-14.27-15.28-28.78-17.4-45.31a53.3,53.3,0,0,1,.87-17.38c1.36-6.79,7.13-9.94,15.09-8.64,8.9,1.47,17.36,4.58,25.93,7.24,22,6.83,42.56,17.15,63.33,26.92,14.6,6.88,28.91,14.38,43.52,21.24,8.64,4.07,16.49,9.34,24.43,14.51,2.8,1.82,5.81,3.68,4.71,7.86-1.19,4.53-4.68,5.85-8.8,5.79-8-.13-14.82,3.1-21.31,7.31C229.42,305.76,228.82,306,228,306.49Zm15.13-18.76a48.27,48.27,0,0,0-11-7c-13.91-6.78-27.8-13.63-41.79-20.26-25.72-12.18-51.53-24.16-78.75-32.76-5.39-1.7-10.75-3.53-16.11-5.34-2.64-.89-3.43,0-3.48,2.75-.28,14.47,3.25,27.93,9.45,41,7.43,15.59,17.42,29.44,27.41,43.4,16.24,22.72,35.56,42.28,58.64,57.88a344.67,344.67,0,0,0,44.34,24.94c2.23,1.07,2.87.08,3.94-1.29,3.34-4.27,5-9.38,7.1-14.26,4.75-11.23,6.08-23.11,5.59-35.21-.1-2.55-.07-5.61-3-6.91s-4.53,1.26-6.49,2.56a43.36,43.36,0,0,0-9,8.59c-3,3.63-4.23,3.27-6.24-.82a20,20,0,0,1-1.53-12.16,56.61,56.61,0,0,1,5.07-16.77l-7.64,3.67c-2,1-4,3.28-6.23,1a6.48,6.48,0,0,1-1.22-7.45,34.69,34.69,0,0,1,3.49-6C222.4,297.86,231.94,292.24,243.12,287.73Z"/><path class="cls-5" d="M518.29,213.22c4.09-4.65,6.1-9.64,12.59-8.07,2.08.51,3.66-1.4,4.32-3.47.82-2.6-.39-4.61-2.41-6-4.75-3.38-10.18-3.71-15.78-3.31-8.67.61-17.07,2-24.84,8.74,3.44-13.77,6.49-26.19,8.51-38.81,3.32-20.71,6.83-41.42,13.06-61.47a200.49,200.49,0,0,1,21.92-48.46,38.87,38.87,0,0,1,2.85-3.47c2.18-2.66,3.58-3.1,6.29.18,17.69,21.43,26.84,46.44,31.67,73.36,2.35,13.09,6.66,25.82,7.12,39.25a105.14,105.14,0,0,1-1,21.41c-1.85,10.74-.2,21.6-.62,32.41-.61,15.65-1.42,31.23-4.33,46.68-.92,4.87-3,5.32-7.15,4.15-6.39-1.8-11.79-5.47-17.28-8.82-9.22-5.63-18.07-11.87-27-17.93-1.31-.89-3.68-1.6-3.34-3.24a5.25,5.25,0,0,1,4.69-3.95c5-.11,10.19-2,14.89,1.45a4.19,4.19,0,0,0,5.52-.35A4.69,4.69,0,0,0,549.3,228a13.09,13.09,0,0,0-7.17-7.94C534.86,216.93,527.89,212.8,518.29,213.22Z"/><path class="cls-4" d="M747.7,380.93c2.57,4.5,6.06,8.62,4.34,14.54-2.26,7.8-9.65,12.33-17.32,10.25a13.93,13.93,0,1,1,8-26.65c1.71.54,3.35,1.27,5,1.91Z"/><path class="cls-4" d="M679.27,336.66l.87-.88c3.39-2.87,7.14-4.72,11.73-4.72,8.66,0,14.24,6.52,12.76,15.06-1.64,9.47-12.08,15.79-21.2,12.84-6.57-2.11-10-9.68-7.32-16.7A40.88,40.88,0,0,1,679.27,336.66Z"/><path class="cls-4" d="M591.44,386c3.26-1.76,5.45-4.94,9.23-6.19,10.65-3.53,19.85,4.09,17.93,15.13a16.85,16.85,0,0,1-20.17,13.19c-7.21-1.78-11-9.79-8.47-17.6.51-1.53,1.93-2.76,1.54-4.58Z"/><path class="cls-5" d="M243.12,287.73c-11.18,4.51-20.72,10.13-27.5,19.5a34.69,34.69,0,0,0-3.49,6,6.48,6.48,0,0,0,1.22,7.45c2.27,2.32,4.24,0,6.23-1l7.64-3.67a56.61,56.61,0,0,0-5.07,16.77A20,20,0,0,0,223.68,345c2,4.09,3.22,4.45,6.24.82a43.36,43.36,0,0,1,9-8.59c2-1.3,3.68-3.79,6.49-2.56s2.92,4.36,3,6.91c.49,12.1-.84,24-5.59,35.21-2.07,4.88-3.76,10-7.1,14.26-1.07,1.37-1.71,2.36-3.94,1.29a344.67,344.67,0,0,1-44.34-24.94c-23.08-15.6-42.4-35.16-58.64-57.88-10-14-20-27.81-27.41-43.4-6.2-13-9.73-26.48-9.45-41,.05-2.8.84-3.64,3.48-2.75,5.36,1.81,10.72,3.64,16.11,5.34,27.22,8.6,53,20.58,78.75,32.76,14,6.63,27.88,13.48,41.79,20.26A48.27,48.27,0,0,1,243.12,287.73Z"/></g></g></svg>