<svg xmlns="http://www.w3.org/2000/svg" viewBox="0 0 690.15 179.48"><defs><style>.cls-1{fill:#060505;}</style></defs><g id="Layer_2" data-name="Layer 2"><g id="Layer_1-2" data-name="Layer 1"><path class="cls-1" d="M334.9.45H354c1.77,0,2,1.33,2.11,2.59.5,4,.93,7.93,1.37,11.9,2.64,23.62,5.28,47.25,8,71.45,2.29-3.54,2.12-7.21,2.73-10.56,4.27-23.56,8.33-47.15,12.45-70.74.81-4.62.82-4.7,5.36-4.63,3.43,0,7.59-1.34,10.09.59s1.82,6.35,2.43,9.68c4.23,23.2,8.35,46.41,12.5,69.62.42,2.31.89,4.6,1.53,7.92,2.26-5.83,1.92-11.07,2.49-16.09,2.51-22.18,4.69-44.4,7-66.61.1-.9.22-1.8.31-2.7.16-1.71,1-2.5,2.81-2.47,6,.09,11.93,0,18.38,0-1.22,8.48-2.36,16.48-3.55,24.47q-5.19,35-10.43,70c-1.94,13.1-3.82,26.21-5.8,39.31-.64,4.3-.74,4.3-5.07,4.34q-4.89,0-9.8,0c-4.44,0-4.51,0-5.22-4.22-1.59-9.3-3.1-18.62-4.66-27.92q-4.44-26.56-8.91-53.13c-.12-.7-.23-1.44-1.57-1.61C387,60.82,385.42,70,383.9,79.18q-4.54,27.39-9,54.77c-.76,4.55-.8,4.55-5.47,4.58-3.09,0-6.18,0-9.26,0-5-.05-4.53.77-5.43-4.53-1.38-8-2.39-16.15-3.59-24.22Q345.35,71,339.57,32.25C338,21.86,336.51,11.45,334.9.45Z"/><path class="cls-1" d="M267.26,130.77c-1.58.13-2,1.26-2.65,2-6.44,6.77-14.32,8.18-23,5.88-5.9-1.57-9.54-5.76-11.4-11.46a48.86,48.86,0,0,1-2.07-15q-.09-23.16,0-46.3c0-3.08.36-6.16.65-9.23.73-7.72,4.48-13.65,11.77-16.24,7.71-2.74,15.44-2.15,22,3.6,1.32,1.15,2.21,2.79,3.52,4.5,1.77-2.05,1.39-3.55,1.32-4.85-.13-2.44.48-3.71,3.29-3.59,4.53.19,9.08.16,13.62,0,2.5-.08,3.14,1.07,3,3.27-.1,2,0,4,0,6q0,48.48,0,97a53.88,53.88,0,0,1-.76,10.85c-3.14,15.46-18.2,25-34.27,21.76-12.79-2.59-20.09-10.79-23.17-23.14-.17-.71-.22-1.44-.33-2.16l-.59-3.7c6,0,11.74.06,17.52,0,1.94,0,2.37,1.1,2.85,2.58a9.52,9.52,0,0,0,8.67,7.11c5.49.55,9.4-2.23,9.9-7.7A153.83,153.83,0,0,0,267.26,130.77Zm.11-41.17h.08c0-6.18,0-12.35,0-18.52a14.59,14.59,0,0,0-1.36-6.87,9.11,9.11,0,0,0-9.29-5.3c-4.22.27-6.61,2.76-7.79,6.51a28.28,28.28,0,0,0-1.1,8.61q0,16.06,0,32.13a23.7,23.7,0,0,0,1.16,8,7.57,7.57,0,0,0,6.79,5.41c6.42.73,11.18-2.84,11.46-9.32C267.6,103.4,267.37,96.49,267.37,89.6Z"/><path class="cls-1" d="M191,48.23c.88-1,1.07-1.08,1.08-1.21.69-7,.69-7,7.64-7,3.26,0,6.53.06,9.8,0,1.82,0,2.7.67,2.64,2.53,0,1.27,0,2.54,0,3.81q0,49.85,0,99.68a52.8,52.8,0,0,1-.83,11.38c-3.38,15.43-18.51,24.74-34.55,21.3-12.79-2.73-20-11-22.86-23.41-.37-1.58-.53-3.22-.89-5.49,6.08,0,12,0,17.9,0,1.35,0,1.9.73,2.27,1.87a15.47,15.47,0,0,0,1.25,3,10.17,10.17,0,0,0,11.26,4.63c3.8-.91,6.2-3.7,6.37-8.42.25-6.67.07-13.35.07-20-1.67-.32-1.94,1-2.59,1.72-6.41,6.8-14.26,8.31-23,6.05-5.89-1.53-9.59-5.66-11.51-11.35a46,46,0,0,1-2.09-14.5q-.12-24,0-47.93a84.5,84.5,0,0,1,.66-8.68c.81-7.49,4.52-13.22,11.57-15.81,7.51-2.75,15-2.24,21.6,3.07C188.35,44.7,189.45,46.45,191,48.23Zm1.2,41.3h.08c0-6,0-12,0-18a15.43,15.43,0,0,0-1.4-7.41,9.08,9.08,0,0,0-9.32-5.23c-4.23.29-6.62,2.8-7.73,6.56a26.13,26.13,0,0,0-1,7c-.11,11.61-.06,23.23,0,34.85a20.49,20.49,0,0,0,1.16,7,7.58,7.58,0,0,0,6.84,5.36c6.41.7,11.13-2.88,11.4-9.4C192.4,103.34,192.17,96.43,192.17,89.53Z"/><path class="cls-1" d="M0,69Q0,36.91,0,4.79C0,.48.07.45,4.46.44,13,.42,21.51.47,30,.44A45.26,45.26,0,0,1,40.29,1.6c13,2.91,21.62,13,23.11,26.93a91.41,91.41,0,0,1,.52,9.78q.07,30.21,0,60.42a66,66,0,0,1-1.39,15.14C59.29,127.49,50.14,136,36.26,137.78c-11.2,1.45-22.47.52-33.71.76-1.87,0-2.63-.75-2.54-2.57,0-1.27,0-2.54,0-3.81Zm19.74.32V90c0,8.89.06,17.77,0,26.66,0,2.27.6,3.36,3,3.18,3.43-.24,6.9-.14,10.31-.5,5.24-.55,8.5-3.55,10-8.6a25.42,25.42,0,0,0,.89-7.53q.07-33.73,0-67.46a29.91,29.91,0,0,0-.61-6.48c-1.42-6.15-5-9.31-11.28-10A66.51,66.51,0,0,0,24.51,19c-5.08,0-4.76-.48-4.76,4.6Q19.77,46.49,19.75,69.34Z"/><path class="cls-1" d="M579.87,81.62c5.63-10.11,11.2-20.24,16.89-30.31,2-3.62,3.13-8.42,6.48-10.51,3.56-2.22,8.47-.49,12.78-.72,1.93-.1,3.87,0,5.92,0,0,2.42-1.38,3.77-2.25,5.27-6,10.35-12,20.74-18.22,31-1.74,2.85-1.66,5-.23,7.91,8,16.1,15.71,32.29,23.52,48.45.78,1.61,1.53,3.24,2.53,5.37-3.66.94-7,.54-10.35.47-3.58-.08-7.7,1.41-10.58-.7-2.66-1.94-3.07-6-4.42-9.16-4.5-10.49-8.86-21-13.49-32.11-3.87,4.52-6.45,9.36-9.25,14-.67,1.1-.38,2.82-.38,4.26,0,6.54,0,13.08,0,19.62,0,4-.08,4.08-4.27,4.12s-8.36-.06-12.53,0c-2,.05-3.13-.54-3-2.75.08-1.09,0-2.18,0-3.27V6.13A15.71,15.71,0,0,0,559,4c-.45-2.94.89-3.71,3.67-3.58,4.35.2,8.71.16,13.07,0,2.42-.08,3.29.85,3,3.17a29.71,29.71,0,0,0,0,3.27V81.38Z"/><path class="cls-1" d="M488.38,129.11l-3.61,4c-6.08,6.84-13.79,7.71-21.95,5.38-7.69-2.19-11.93-8-13.56-15.61-1.77-8.31-1.2-16.61.66-24.84,2.17-9.57,8.45-14.9,17.81-16.9a55.42,55.42,0,0,1,17.89-.81c2.65.3,3.65-.55,3.47-3.19-.2-3.07,0-6.18-.36-9.24-.61-5.46-2.59-7.88-6.66-8.76-5.08-1.1-9.69.7-12.3,4.85a10.33,10.33,0,0,0-1.15,2.45c-.57,2-1.92,2.3-3.74,2.26-4.18-.1-8.36,0-12.53,0-3.53-.06-3.57-.18-3.21-3.83,1.15-11.72,10.51-22.4,21.93-25a35.1,35.1,0,0,1,16.74.14c11.13,2.87,17.61,10.31,20.11,21.32a43.42,43.42,0,0,1,1,9.74c0,20.88,0,41.77,0,62.66,0,4.75,0,4.77-4.71,4.8-4.17,0-8.35-.05-12.53,0-1.85,0-2.6-.7-2.62-2.54S489.39,132,488.38,129.11Zm.7-24c0-2.32-.09-4.14,0-5.94s-.53-2.92-2.55-3.37c-12.07-2.66-21,6.63-17.78,18.53,1.36,5,5,7.88,9.79,7.84,5.14,0,8.83-3.12,9.94-8.34A37.58,37.58,0,0,0,489.08,105.1Z"/><path class="cls-1" d="M79.77,88.79c0-8-.39-16,.09-24,.73-12.17,8-21.16,19.11-24.47a33.07,33.07,0,0,1,19.33-.08c11.15,3.39,17.57,11.07,19.24,22.6a76.69,76.69,0,0,1,.83,13c-.3,12.7.41,25.4-.6,38.1-1.14,14.44-12.19,26.53-30.7,25.53-16.6-.9-26.67-11.17-27.4-27.89-.33-7.61-.06-15.25-.06-22.87Zm19.51.53c0,7.08-.2,14.16.06,21.23.22,5.66,3.57,8.87,8.79,9.16,5.65.32,9.16-2.58,10-8.41a37.67,37.67,0,0,0,.35-5.42c0-11.07,0-22.14,0-33.2a33,33,0,0,0-.65-7,8,8,0,0,0-7-6.59c-6.47-1.09-11.17,2.36-11.45,9C99,75.16,99.28,82.25,99.28,89.32Z"/><path class="cls-1" d="M631.86,109.89c5.14,0,10.55,0,16,0a2.24,2.24,0,0,1,2.4,1.72c.29.86.47,1.75.8,2.59,2,4.88,4.59,6.76,9.4,6.76a11,11,0,0,0,10.35-6.62,11.34,11.34,0,0,0-2.87-12.45c-2.34-2.12-5.27-3.13-8.14-4.26-3.87-1.53-7.88-2.77-11.6-4.61-11.33-5.58-16.94-15.87-15.82-28.47a28.39,28.39,0,0,1,19.84-24.21c16.58-5.09,32.51,4,36.31,20.79a34.54,34.54,0,0,1,.55,4.31c.15,1.53-.46,2.37-2.13,2.36-4.72,0-9.44-.07-14.16,0-2,0-2.18-1.25-2.56-2.74-1-4.1-3.78-6.47-7.94-7.2-5-.88-9.07,1.42-10.78,6.12a9.45,9.45,0,0,0,4,11.75,94.9,94.9,0,0,0,8.92,4c3.33,1.42,6.71,2.72,10,4.22,13.48,6.1,16.89,19.37,15.36,30.75a28.7,28.7,0,0,1-23.76,24.41c-17.57,2.86-31.91-7.46-34.55-24.88A6.79,6.79,0,0,1,631.86,109.89Z"/><path class="cls-1" d="M521.92,61q0-28.32,0-56.63c0-3.87.06-3.91,3.75-3.95q6-.06,12,0c4,0,4,.08,4,4.29,0,.91,0,1.81,0,2.72q0,49.54,0,99.09c0,1.82,0,3.64,0,5.45.27,5.55,1.25,7.06,6.63,8.37,2.53.62,3.17,1.74,3.08,4.1-.15,4-.12,8,0,12,.06,2.25-.53,3.47-3.06,3.14-3-.4-6.18-.42-9.19-1-9.91-1.95-15.82-8.71-16.92-19.3-.33-3.24-.34-6.52-.35-9.79Q521.89,85.24,521.92,61Z"/><path class="cls-1" d="M323.78,89.27q0,22.31,0,44.61c0,4.61,0,4.62-4.82,4.65-3.08,0-6.17,0-9.25,0-6.3,0-5.66.69-5.67-6q0-18.5,0-37,0-25.29,0-50.59c0-5.57,0-4.92,5.08-4.93,3.26,0,6.53,0,9.79,0,5.53,0,4.89.08,4.89,5.15Z"/><path class="cls-1" d="M313.13,20.17c-2.57-.34-6.41,1.35-8.42-.65s-.59-5.81-.64-8.82c0-3.21-1.37-7.37.54-9.42,2.17-2.34,6.47-.75,9.83-.78,3,0,6.75-1.38,8.77.79,1.78,1.92.41,5.52.55,8.38.09,2,0,4,0,6,0,4.72.52,4.56-4.79,4.54Z"/></g></g></svg>